<svg xmlns="http://www.w3.org/2000/svg" style="display: none;">
    <symbol id="tile" viewBox="0 0 24 24">
      <g id="Artboard-1" transform="translate(-467.000000, -479.000000)">
        <g id="slice" transform="translate(215.000000, 119.000000)"/>
          <path d="M468,480 L468,486 L474,486 L474,480 L468,480 Z M476,480 L476,486 L482,486 L482,480 L476,480 Z M484,480 L484,486 L490,486 L490,480 L484,480 Z M468,488 L468,494 L474,494 L474,488 L468,488 Z M476,488 L476,494 L482,494 L482,488 L476,488 Z M484,488 L484,494 L490,494 L490,488 L484,488 Z M468,496 L468,502 L474,502 L474,496 L468,496 Z M476,496 L476,502 L482,502 L482,496 L476,496 Z M484,496 L484,502 L490,502 L490,496 L484,496 Z" />
        </g>
      </g>
    </symbol>
    <symbol id="list" viewBox="0 0 48 48">
      <path d="M8 21c-1.66 0-3 1.34-3 3s1.34 3 3 3 3-1.34 3-3-1.34-3-3-3zm0-12c-1.66 0-3 1.34-3 3s1.34 3 3 3 3-1.34 3-3-1.34-3-3-3zm0 24.33c-1.47 0-2.67 1.19-2.67 2.67s1.2 2.67 2.67 2.67 2.67-1.19 2.67-2.67-1.2-2.67-2.67-2.67zm6 4.67h28v-4h-28v4zm0-12h28v-4h-28v4zm0-16v4h28v-4h-28z"/>
      <path d="M0 0h48v48h-48z" fill="none"/>
    </symbol>
    <symbol id="next" viewBox="0 0 16 16">
      <path d="M15.375,7L10,2.54C9.695,2.287,9.461,2,9,2C8.375,2,8,2.516,8,3v3H1C0.45,6,0,6.45,0,7v2c0,0.55,0.45,1,1,1h7v3  c0,0.484,0.375,1,1,1c0.461,0,0.695-0.287,1-0.54L15.375,9C15.758,8.688,16,8.445,16,8S15.758,7.313,15.375,7z"/>
    </symbol>

</svg>
